<?xml version="1.0" standalone="no"?><!DOCTYPE svg PUBLIC "-//W3C//DTD SVG 1.1//EN" "http://www.w3.org/Graphics/SVG/1.1/DTD/svg11.dtd"><svg t="1665022522076" class="icon" viewBox="0 0 1024 1024" version="1.1" xmlns="http://www.w3.org/2000/svg" p-id="16114" xmlns:xlink="http://www.w3.org/1999/xlink" width="32" height="32"><path d="M286.7 254.5h365.5V192c0-10.6-9.8-18.5-20.2-16.3l-348.9 75.8c-7.6 1.7-13.1 8.4-13.1 16.3v3.2c0.1-9.1 7.5-16.5 16.7-16.5z" fill="#FFCF48" p-id="16115"></path><path d="M511 428.9m-74.8 0a74.8 74.8 0 1 0 149.6 0 74.8 74.8 0 1 0-149.6 0Z" fill="#49A0E8" p-id="16116"></path><path d="M735.3 254.5H286.7c-9.2 0-16.6 7.4-16.6 16.6V836c0 9.2 7.4 16.6 16.6 16.6h448.6c9.2 0 16.6-7.4 16.6-16.6V271.1c0-9.2-7.4-16.6-16.6-16.6zM511 337.6c50.4 0 91.4 41 91.4 91.4s-41 91.4-91.4 91.4-91.4-41-91.4-91.4 41-91.4 91.4-91.4z m99.7 415.3H411.3v-16.6h199.4v16.6z m0-74.8H411.3v-16.6h199.4v16.6z m0-74.7H411.3v-16.6h199.4v16.6z" fill="#49A0E8" p-id="16117"></path></svg>