<?xml version="1.0" standalone="no"?><!DOCTYPE svg PUBLIC "-//W3C//DTD SVG 1.1//EN" "http://www.w3.org/Graphics/SVG/1.1/DTD/svg11.dtd"><svg t="1664239806022" class="icon" viewBox="0 0 1024 1024" version="1.1" xmlns="http://www.w3.org/2000/svg" p-id="3141" width="32" height="32" xmlns:xlink="http://www.w3.org/1999/xlink"><path d="M225.28 286.72h716.8a81.92 81.92 0 0 1 81.92 81.92v286.72a81.92 81.92 0 0 1-81.92 81.92H225.28a81.92 81.92 0 0 1-81.92-81.92v-62.21824L0 513.2288l143.36-85.83168V368.64a81.92 81.92 0 0 1 81.92-81.92z" fill="#EA3721" p-id="3142"></path><path d="M810.27072 584.84736v38.0928c0 18.1248-9.216 27.3408-27.3408 27.3408h-37.15072l-8.6016-28.2624c14.4384 1.2288 25.8048 1.8432 34.0992 1.8432 6.144 0 9.50272-3.072 9.50272-9.216v-29.7984H699.392v-27.648h81.38752v-14.7456c7.9872-5.2224 18.7392-11.9808 32.256-20.2752H720.896v-26.4192h133.91872v20.8896c-12.9024 10.1376-27.9552 21.1968-44.544 33.4848v7.0656h64.2048v27.648h-64.2048z m-3.6864-151.42912h-29.47072v-19.968h-74.3424v19.6608h-29.4912v-19.6608h-67.584v-26.7264h67.584v-19.3536h29.4912v19.3536h74.3424v-19.3536h29.47072v19.3536h67.584v26.7264h-67.584v19.968z m-195.97312 44.21632v-26.70592h85.4016c3.3792-7.0656 6.4512-14.1312 9.216-20.8896l28.2624 4.9152c-1.8432 5.5296-3.9936 10.752-6.144 15.9744h145.28512v26.70592H714.1376c-9.216 15.6672-19.968 30.4128-32.256 44.544v129.024H653.9264v-101.6832c-11.3664 9.8304-23.3472 19.0464-36.2496 27.648l-18.432-23.9616c34.4064-22.1184 61.1328-47.3088 80.7936-75.5712h-69.4272z m-169.8816 171.4176h-28.8768v-170.1888c-6.144 8.9088-12.9024 17.5104-19.968 26.112l-9.8304-30.72c24.2688-32.54272 41.472-67.87072 51.3024-106.57792l28.2624 5.5296c-4.3008 15.36-9.5232 30.1056-15.6672 44.2368h46.98112c-4.9152-14.7456-10.4448-29.4912-16.5888-43.6224l27.9552-7.3728c6.7584 18.7392 12.288 35.6352 15.9744 50.9952h47.0016v27.9552h-50.0736v35.30752h43.9296v27.3408h-43.9296v34.0992h43.9296v27.0336h-43.9296v38.0928h53.4528v27.9552H440.7296v13.824z m47.59552-203.65312H440.7296v35.30752h47.59552v-35.30752z m0 62.64832H440.7296v34.0992h47.59552v-34.0992z m0 99.2256v-38.0928H440.7296v38.0928h47.59552z m-127.16032-104.1408c8.9088-3.6864 17.5104-7.68 26.112-11.9808v29.7984c-8.6016 3.9936-17.5104 7.68-26.112 11.3664v83.5584c0 19.968-10.4448 30.1056-31.0272 30.1056h-27.648l-6.4512-28.2624c8.2944 1.2288 16.2816 1.8432 23.9616 1.8432 7.9872 0 11.9808-3.6864 11.9808-11.0592v-65.1264c-11.6736 3.9936-23.6544 7.68-35.328 11.0592l-7.3728-29.4912c14.4384-3.072 28.5696-6.7584 42.7008-11.0592v-64.49152h-36.864v-28.2624h36.864v-54.0672h29.184v54.0672h28.5696v28.2624h-28.5696v53.73952z" fill="#FFFFFF" p-id="3143"></path></svg>