<?xml version="1.0" standalone="no"?><!DOCTYPE svg PUBLIC "-//W3C//DTD SVG 1.1//EN" "http://www.w3.org/Graphics/SVG/1.1/DTD/svg11.dtd"><svg t="1665022328959" class="icon" viewBox="0 0 1024 1024" version="1.1" xmlns="http://www.w3.org/2000/svg" p-id="13953" xmlns:xlink="http://www.w3.org/1999/xlink" width="32" height="32"><path d="M866.2 825.1l-32.6-57.9-310.1-551.3c-6.4-11.3-22.7-11.3-29.1 0l-310 551.2-32.6 57.9-16.6 29.5h261.7l18.7-33.2L509 655.2l93.5 166.1 18.7 33.2h261.7l-16.7-29.4z" fill="#49A0E8" p-id="13954"></path><path d="M415.5 821.4l-18.6 33.2h224.2l-18.6-33.2zM523.5 215.9l2.1 3.7V190c0-9.2-7.4-16.6-16.6-16.6s-16.6 7.4-16.6 16.6v29.5l2.1-3.7c6.3-11.3 22.7-11.3 29 0.1zM184.4 767.1c-1.9-7-8.3-12.2-16-12.2-9.2 0-16.6 7.4-16.6 16.6V825l32.6-57.9zM866.2 825.1v-53.5c0-9.2-7.4-16.6-16.6-16.6-7.7 0-14 5.2-16 12.2l32.6 57.9z" fill="#F9C33E" p-id="13955"></path></svg>