<?xml version="1.0" standalone="no"?><!DOCTYPE svg PUBLIC "-//W3C//DTD SVG 1.1//EN" "http://www.w3.org/Graphics/SVG/1.1/DTD/svg11.dtd"><svg t="1665022376323" class="icon" viewBox="0 0 1024 1024" version="1.1" xmlns="http://www.w3.org/2000/svg" p-id="14094" xmlns:xlink="http://www.w3.org/1999/xlink" width="32" height="32"><path d="M802.7 216.9H620c0 18.4-14.9 33.2-33.2 33.2H437.2c-18.4 0-33.2-14.9-33.2-33.2H221.3c-9.2 0-16.6 7.4-16.6 16.6v548.3c0 9.2 7.4 16.6 16.6 16.6h58.1V840c0 13.8 11.2 24.9 24.9 24.9s24.9-11.2 24.9-24.9v-41.5h365.5V840c0 13.8 11.2 24.9 24.9 24.9 13.8 0 24.9-11.2 24.9-24.9v-41.5h58.1c9.2 0 16.6-7.4 16.6-16.6V233.6c0.2-9.2-7.3-16.7-16.5-16.7zM312.6 732c-18.4 0-33.2-14.9-33.2-33.2 0-18.4 14.9-33.2 33.2-33.2s33.2 14.9 33.2 33.2c0.1 18.3-14.8 33.2-33.2 33.2z m398.8 0c-18.4 0-33.2-14.9-33.2-33.2 0-18.4 14.9-33.2 33.2-33.2s33.2 14.9 33.2 33.2c0 18.3-14.9 33.2-33.2 33.2z m33.2-216c0 9.2-7.4 16.6-16.6 16.6H296c-9.2 0-16.6-7.4-16.6-16.6V316.6c0-9.2 7.4-16.6 16.6-16.6h432c9.2 0 16.6 7.4 16.6 16.6V516z" fill="#49A0E8" p-id="14095"></path><path d="M437.2 250.2h149.5c18.4 0 33.2-14.9 33.2-33.2v-16.6c0-18.4-14.9-33.2-33.2-33.2H437.2c-18.4 0-33.2 14.9-33.2 33.2V217c0 18.3 14.9 33.2 33.2 33.2z" fill="#FFCF48" p-id="14096"></path><path d="M852.6 300c-9.2 0-16.6 7.4-16.6 16.6v49.8c0 9.2 7.4 16.6 16.6 16.6 9.2 0 16.6-7.4 16.6-16.6v-49.8c0-9.1-7.4-16.6-16.6-16.6zM171.4 308.3c-9.2 0-16.6 7.4-16.6 16.6v49.8c0 9.2 7.4 16.6 16.6 16.6 9.2 0 16.6-7.4 16.6-16.6v-49.8c0-9.1-7.4-16.6-16.6-16.6z" fill="#49A0E8" p-id="14097"></path></svg>