<?xml version="1.0" standalone="no"?><!DOCTYPE svg PUBLIC "-//W3C//DTD SVG 1.1//EN" "http://www.w3.org/Graphics/SVG/1.1/DTD/svg11.dtd"><svg t="1665022063767" class="icon" viewBox="0 0 1024 1024" version="1.1" xmlns="http://www.w3.org/2000/svg" p-id="11393" width="32" height="32" xmlns:xlink="http://www.w3.org/1999/xlink"><path d="M511 163.1c-18.4 0-33.2 14.9-33.2 33.2h66.5c-0.1-18.3-14.9-33.2-33.3-33.2z" fill="#F9C33E" p-id="11394"></path><path d="M768.5 196.3h-515c-27.5 0-49.8 22.3-49.8 49.8v515c0 27.5 22.3 49.8 49.8 49.8h83.8l-49.8 49.8h64.9l49.8-49.8h217.5l49.8 49.8h64.9l-49.8-49.8h83.8c27.5 0 49.8-22.3 49.8-49.8v-515c0.2-27.5-22.2-49.8-49.7-49.8zM311.6 703.1c-13.8 0-24.9-11.2-24.9-24.9 0-13.8 11.2-24.9 24.9-24.9s24.9 11.2 24.9 24.9c0.1 13.7-11.1 24.9-24.9 24.9z m157.9-257.6c0 18.4-14.9 33.2-33.2 33.2h-133c-18.4 0-33.2-14.9-33.2-33.2V312.6c0-18.4 14.9-33.2 33.2-33.2h132.9c18.4 0 33.2 14.9 33.2 33.2v132.9z m240.9 257.6c-13.8 0-24.9-11.2-24.9-24.9 0-13.8 11.2-24.9 24.9-24.9 13.8 0 24.9 11.2 24.9 24.9s-11.2 24.9-24.9 24.9z m41.5-257.6c0 18.4-14.9 33.2-33.2 33.2H585.8c-18.4 0-33.2-14.9-33.2-33.2V312.6c0-18.4 14.9-33.2 33.2-33.2h132.9c18.4 0 33.2 14.9 33.2 33.2v132.9z" fill="#49A0E8" p-id="11395"></path><path d="M436.2 279.4H303.3c-18.4 0-33.2 14.9-33.2 33.2v132.9c0 18.4 14.9 33.2 33.2 33.2h132.9c18.4 0 33.2-14.9 33.2-33.2V312.6c0.1-18.3-14.8-33.2-33.2-33.2zM718.7 279.4H585.8c-18.4 0-33.2 14.9-33.2 33.2v132.9c0 18.4 14.9 33.2 33.2 33.2h132.9c18.4 0 33.2-14.9 33.2-33.2V312.6c0-18.3-14.9-33.2-33.2-33.2z" fill="#FFFFFF" p-id="11396"></path><path d="M311.6 678.1m-24.9 0a24.9 24.9 0 1 0 49.8 0 24.9 24.9 0 1 0-49.8 0Z" fill="#FFFFFF" p-id="11397"></path><path d="M710.4 678.1m-24.9 0a24.9 24.9 0 1 0 49.8 0 24.9 24.9 0 1 0-49.8 0Z" fill="#FFFFFF" p-id="11398"></path></svg>